<?xml version="1.0" encoding="utf-8"?>
<!-- Generator: Adobe Illustrator 25.1.0, SVG Export Plug-In . SVG Version: 6.00 Build 0)  -->
<svg version="1.1" id="Camada_1" xmlns="http://www.w3.org/2000/svg" xmlns:xlink="http://www.w3.org/1999/xlink" x="0px" y="0px"
	 viewBox="0 0 282.2 282.2" style="enable-background:new 0 0 282.2 282.2;" xml:space="preserve">
<style type="text/css">
	.st0{fill:#FFF6EC;}
	.st1{display:none;}
	.st2{display:inline;fill:#FFFFFF;}
	.st3{display:none;fill:none;}
	.st4{display:none;enable-background:new    ;}
	.st5{display:none;fill:#A18A5D;}
	.st6{fill:#826D00;}
</style>
<g>
	<g>
		<rect x="-17.4" y="-8" class="st0" width="316.1" height="289.5"/>
		<g class="st1">
			<path class="st2" d="M215.6,153.2H62.4c-3.7,0-6.6-3-6.6-6.6l0,0c0-3.7,3-6.6,6.6-6.6h153.2c3.7,0,6.6,3,6.6,6.6l0,0
				C222.2,150.2,219.2,153.2,215.6,153.2z"/>
			<path class="st2" d="M219.4,100.6H66.3c-3.7,0-6.6-3-6.6-6.6l0,0c0-3.7,3-6.6,6.6-6.6h153.2c3.7,0,6.6,3,6.6,6.6l0,0
				C226.1,97.7,223.1,100.6,219.4,100.6z"/>
			<path class="st2" d="M213.3,131.4c-3.5-1.2-6.8-3.1-9.6-5.6c-5.3-4.7-13.6-4.7-18.8,0c-5,4.5-11.5,7-18.2,7s-13.2-2.5-18.2-7
				c-5.3-4.7-13.6-4.7-18.8,0c-5,4.5-11.5,7-18.2,7s-13.2-2.5-18.2-7c-5.3-4.7-13.6-4.7-18.8,0c-2.8,2.5-6.1,4.4-9.6,5.6
				c-4.3,1.4-8.7-1.8-8.7-6.3l0,0c0-2.9,1.9-5.4,4.6-6.3c1.7-0.6,3.4-1.6,4.8-2.8c5-4.5,11.5-7,18.2-7c6.7,0,13.2,2.5,18.2,7
				c5.3,4.7,13.6,4.7,18.8,0c5-4.5,11.5-7,18.2-7s13.2,2.5,18.2,7c5.3,4.7,13.6,4.7,18.8,0c5-4.5,11.5-7,18.2-7s13.2,2.5,18.2,7
				c1.4,1.3,3,2.2,4.8,2.8c2.7,1,4.6,3.4,4.6,6.3l0,0C221.9,129.5,217.5,132.8,213.3,131.4z"/>
			<path class="st2" d="M218.1,163.4c-3.7,0-6.6,3-6.6,6.6l0,0v3.1c0,10.2-8.3,18.5-18.5,18.5H88.8c-10.2,0-18.5-8.3-18.5-18.5V170
				l0,0c0-3.7-3-6.6-6.6-6.6l0,0c-3.7,0-6.6,3-6.6,6.6v3.1c0,17.5,14.2,31.7,31.7,31.7H193c17.5,0,31.7-14.2,31.7-31.7V170
				C224.8,166.4,221.8,163.4,218.1,163.4L218.1,163.4z"/>
			<path class="st2" d="M70.7,87.3L70.7,87.3l0.1-0.6C70.8,87,70.8,87.2,70.7,87.3z"/>
			<path class="st2" d="M160,29.2h-38.1C86.1,29.2,57,58.2,57,94l0,0c0,3.7,3,6.6,6.6,6.6h0.5c3.7,0,6.6-3,6.6-6.6v-6.6h-0.1
				c0-0.2,0.1-0.4,0.1-0.6v-0.1l0,0c3.6-24.9,25.1-44.2,51-44.2H160c25.9,0,47.4,19.2,51,44.2h0.1v0.7V94c0,3.7,3,6.6,6.6,6.6h0.4
				c3.7,0,6.6-3,6.6-6.6l0,0C224.8,58.2,195.8,29.2,160,29.2z"/>
			<path class="st2" d="M70.8,86.7L70.8,86.7C70.8,86.8,70.9,86.7,70.8,86.7L70.8,86.7z"/>
			<path class="st2" d="M211.1,86.7H211c0,0.2,0.1,0.5,0.1,0.7V86.7z"/>
			<path class="st2" d="M215.6,153.2H62.4c-3.7,0-6.6-3-6.6-6.6l0,0c0-3.7,3-6.6,6.6-6.6h153.2c3.7,0,6.6,3,6.6,6.6l0,0
				C222.2,150.2,219.2,153.2,215.6,153.2z"/>
			<path class="st2" d="M219.4,100.6H66.3c-3.7,0-6.6-3-6.6-6.6l0,0c0-3.7,3-6.6,6.6-6.6h153.2c3.7,0,6.6,3,6.6,6.6l0,0
				C226.1,97.7,223.1,100.6,219.4,100.6z"/>
			<path class="st2" d="M213.3,131.4c-3.5-1.2-6.8-3.1-9.6-5.6c-5.3-4.7-13.6-4.7-18.8,0c-5,4.5-11.5,7-18.2,7s-13.2-2.5-18.2-7
				c-5.3-4.7-13.6-4.7-18.8,0c-5,4.5-11.5,7-18.2,7s-13.2-2.5-18.2-7c-5.3-4.7-13.6-4.7-18.8,0c-2.8,2.5-6.1,4.4-9.6,5.6
				c-4.3,1.4-8.7-1.8-8.7-6.3l0,0c0-2.9,1.9-5.4,4.6-6.3c1.7-0.6,3.4-1.6,4.8-2.8c5-4.5,11.5-7,18.2-7c6.7,0,13.2,2.5,18.2,7
				c5.3,4.7,13.6,4.7,18.8,0c5-4.5,11.5-7,18.2-7s13.2,2.5,18.2,7c5.3,4.7,13.6,4.7,18.8,0c5-4.5,11.5-7,18.2-7s13.2,2.5,18.2,7
				c1.4,1.3,3,2.2,4.8,2.8c2.7,1,4.6,3.4,4.6,6.3l0,0C221.9,129.5,217.5,132.8,213.3,131.4z"/>
			<path class="st2" d="M218.1,163.4c-3.7,0-6.6,3-6.6,6.6l0,0v3.1c0,10.2-8.3,18.5-18.5,18.5H88.8c-10.2,0-18.5-8.3-18.5-18.5V170
				l0,0c0-3.7-3-6.6-6.6-6.6l0,0c-3.7,0-6.6,3-6.6,6.6v3.1c0,17.5,14.2,31.7,31.7,31.7H193c17.5,0,31.7-14.2,31.7-31.7V170
				C224.8,166.4,221.8,163.4,218.1,163.4L218.1,163.4z"/>
			<path class="st2" d="M70.7,87.3L70.7,87.3l0.1-0.6C70.8,87,70.8,87.2,70.7,87.3z"/>
			<path class="st2" d="M160,29.2h-38.1C86.1,29.2,57,58.2,57,94l0,0c0,3.7,3,6.6,6.6,6.6h0.5c3.7,0,6.6-3,6.6-6.6v-6.6h-0.1
				c0-0.2,0.1-0.4,0.1-0.6v-0.1l0,0c3.6-24.9,25.1-44.2,51-44.2H160c25.9,0,47.4,19.2,51,44.2h0.1v0.7V94c0,3.7,3,6.6,6.6,6.6h0.4
				c3.7,0,6.6-3,6.6-6.6l0,0C224.8,58.2,195.8,29.2,160,29.2z"/>
			<path class="st2" d="M70.8,86.7L70.8,86.7C70.8,86.8,70.9,86.7,70.8,86.7L70.8,86.7z"/>
			<path class="st2" d="M211.1,86.7H211c0,0.2,0.1,0.5,0.1,0.7V86.7z"/>
		</g>
		<rect x="16.6" y="227.6" class="st3" width="255" height="52"/>
		<g class="st4">
			<path class="st2" d="M28.4,261.5c-2.2-0.1-4.3-0.7-6.1-1.8c-2.1-1.2-3.6-2.9-4.3-5l4.8-1.8c0.4,1,1.2,1.9,2.4,2.5
				c1.1,0.5,2.2,0.9,3.5,0.9c2,0.1,3.6-0.4,4.9-1.4c1.1-0.9,1.6-1.9,1.7-3c0.1-2.1-2.1-3.9-6.7-5.1c-7.2-2-10.6-5.4-10.4-10.2
				c0.1-3.4,1.6-5.9,4.3-7.6c2.1-1.3,4.6-1.9,7.5-1.7c3.6,0.2,6.4,1.4,8.6,3.7l-3.7,3.5c-1.2-1.3-2.9-2-5.1-2.1
				c-1.5-0.1-2.8,0.1-3.9,0.6c-1.7,0.7-2.6,2-2.6,3.8c-0.1,2.1,2.1,3.8,6.7,5.1c4.1,1.2,7,2.9,8.8,5.1c1.2,1.6,1.7,3.3,1.7,5.2
				c-0.1,2.7-1.3,4.9-3.6,6.8c-2.1,1.7-4.7,2.6-7.6,2.6C28.8,261.5,28.6,261.5,28.4,261.5z"/>
			<path class="st2" d="M48,258c-2.3-2.3-3.5-5.1-3.5-8.4v-21.9h5.1v21.9c0,1.9,0.7,3.5,2,4.8s3,2,4.8,2c1.9,0,3.5-0.7,4.8-2
				s2-2.9,2-4.8v-21.9h5.1v21.9c0,3.3-1.2,6.1-3.5,8.4c-2.3,2.3-5.1,3.5-8.4,3.5C53.2,261.5,50.4,260.3,48,258z"/>
			<path class="st2" d="M95.6,227.6v33.5h-5.1v-7.8H79.1l-4.9,7.8h-6l21.2-33.5H95.6z M82.3,248.2h8.2v-12.9L82.3,248.2z"/>
			<path class="st2" d="M147.9,227.6v33.5h-5.1v-21.3l-9.3,21.3h-5.7l-9.2-21.2v21.2h-5.1v-33.5h5.3l11.8,27.4l12-27.4H147.9z"/>
			<path class="st2" d="M179.3,227.6v33.5h-5.1v-7.8h-11.4l-4.9,7.8h-6l21.2-33.5H179.3z M166,248.2h8.2v-12.9L166,248.2z"/>
			<path class="st2" d="M208.7,261.2H203l-7.3-14.1H190v14.1h-5.1v-33.5h12.4c2.7,0,5,1,6.8,2.9c1.9,1.9,2.9,4.2,2.9,6.9
				c0,2-0.6,3.8-1.7,5.4c-1.1,1.6-2.5,2.8-4.2,3.5L208.7,261.2z M197.2,241.9c1.3,0,2.4-0.5,3.3-1.4c0.9-0.9,1.3-2,1.3-3.2
				c0-1.3-0.4-2.4-1.3-3.3c-0.9-0.9-2-1.4-3.3-1.4h-7.3v9.2L197.2,241.9L197.2,241.9z"/>
			<path class="st2" d="M227.2,256.4c2,0,3.9-0.5,5.7-1.4v5.6c-1.8,0.7-3.7,1-5.7,1c-4.7,0-8.8-1.7-12.1-5c-3.3-3.3-5-7.4-5-12.1
				s1.7-8.8,5-12.1s7.4-5,12.1-5c2,0,3.9,0.3,5.7,1v5.6c-1.8-1-3.7-1.5-5.7-1.5c-3.3,0-6.1,1.2-8.5,3.5c-2.3,2.3-3.5,5.2-3.5,8.5
				s1.2,6.1,3.5,8.5S223.9,256.4,227.2,256.4z"/>
			<path class="st2" d="M262.8,227.6v33.5h-5.1v-7.8h-11.4l-4.9,7.8h-6l21.2-33.5H262.8z M249.5,248.2h8.2v-12.9L249.5,248.2z"/>
		</g>
	</g>
</g>
<path class="st5" d="M93.9,249.7L93.9,249.7L93.9,249.7h0.2c1.1,0,2.1-0.1,3-0.4c1.7-0.5,3.1-1.3,4-2.4c1.1-1.4,1.7-3.2,1.7-5.3
	v-0.1v-0.1v-0.1c0-1.2-0.2-2.2-0.7-3.1c-0.2-0.5-0.6-1-1-1.5s-0.9-0.9-1.5-1.2c-0.6-0.4-1.3-0.6-2.1-0.8c-0.8-0.2-1.7-0.3-2.6-0.3
	s-1.7,0-2.6,0.1h-0.9c-0.2,0-0.4,0-0.6,0h-3c-0.1,0-0.2,0-0.3,0c-0.1,0.1-0.2,0.3-0.2,0.6c0,0.1,0.1,0.3,0.2,0.4
	c0.1,0.1,0.5,0.2,0.9,0.3c0.8,0.1,1.2,0.5,1.2,1.1v10c0,0.6-0.2,1-0.5,1.2c-0.1,0.1-0.3,0.2-0.5,0.2s-0.4,0-0.6,0s-0.5,0-0.7-0.1
	c-0.1,0.1-0.1,0.3-0.1,0.7c0,0.2,0.1,0.3,0.3,0.4c0.2,0.1,0.5,0.2,0.9,0.2H91L93.9,249.7z M8.5,140.5c2.1,5.2,6.7,9.9,13.6,13.9
	c-2.3,4.6-4.5,10.4-5.6,14.4c-2.8,10.4-2.6,21,1.1,30.1c5.3,13,19.3,21.9,34.2,21.9c10.9,0,21.8-5.6,28.5-14.9
	c0.1,0.4,0.2,0.8,0.4,1.2c1.5,3.6,4.7,5.8,8.1,5.8c4.1,0,7.3-1.6,11.8-6c0,1.4-0.2,2,0.1,2.8c0.7,1.8,3.4,3.2,6.2,3.2
	c13.5,0,23.3-15.9,23.3-15.9c2.3-2.8,4.8-5.8,6.4-10.7c1.8,0,3.6-0.2,4.4-0.2c0.6,0,1.1,0.2,1.5,1.2c0.3,0.8,0,2-2.5,5.8
	c-4.6,7.6-5.7,10.9-4.2,14.7c1.3,3.2,4.3,5,7.8,5c6,0,11.7-4.5,18.4-11.2c0,1.7,0.2,3.3,0.8,4.7c1.7,4.2,5.3,6.8,10.4,6.8
	c7.6,0,14.7-6,18.1-12.1c2.5,2.2,4.5,3,7.2,3c3.5,0,5-1.3,8.7-6.4c-0.4,1.5-1.8,7.4-0.4,10.7c1.3,3.2,3.7,4.4,6.9,4.4
	c7.6,0,15.3-7.8,19.6-13l-0.5,2c-0.8,2.6-1.1,4.2-0.4,6c1.3,3.2,4.3,5,8,5c9.8,0,18-11.2,21.5-15.9l-2.5-2.2
	c-4.6,7.2-12.4,14.1-16.1,14.1c-1.4,0-2.7-1-3-1.8c-0.2-0.6-0.2-1.6-0.1-2.2l7.4-20.7H239c-1.6,3.6-2.4,5-4.8,8.6
	c-1.4,2-1.9,3-2.7,4.1c-4.6,6.2-11.3,11.6-14.6,11.6c-1,0-1.9-0.6-2.3-1.6c-0.2-0.6-0.3-1.2-0.1-2.2l6.2-29.1
	c6.4-7.2,8.9-10.3,14.3-17.9c3.2-4.6,14.2-20.5,17.2-27.3c2.8-6.2,3.3-10.9,1.8-14.5c-1.2-2.8-3.2-4.4-5.9-4.4c-2.9,0-5.7,2-9.2,6
	s-8.5,12.1-11.6,17.9c-4.6,8.6-7.9,17.1-11.3,30.2l-4.8,18.7c-1.6,3.6-2.4,5-4.8,8.6c-2,3-2.3,3.8-4.1,6l0,0
	c-1.6,1.9-2.8,2.6-4.4,2.6c-1.8,0-3.9-1.4-4.5-3c-0.1-0.2-0.4-1-0.4-2c-0.1-3.8,0-4-0.8-5.8c-1.9-4.6-5.9-7.4-11-7.4
	c-4.3,0-9.9,2.8-13.8,7c-1.5,1.5-2.6,3.1-3.5,4.8c-4.8,7.6-12.5,13.9-17,13.9c-1.2,0-2.1-0.6-2.4-1.4c-0.7-1.6,3.2-11.7,4.1-14.9
	c0.6-2,1.1-4.2,0.6-5.6c-1-2.4-3.2-3.8-5.9-3.8c-1,0-2.8,0.2-2.8,0.2c-0.4,0-0.9-0.2-1.1-0.8c-0.2-0.6,0.2-1,0.3-1.8
	c0-0.4,0-1-0.4-2c-0.7-1.8-2.6-2.8-4.4-2.8c-3.3,0-5.1,3-3.7,6.4c0.6,1.4,1.4,2.4,2.7,3c-1.6,3.6-3.3,5.8-6.1,9.4
	c-4.8,7.6-13,14.1-17.3,14.1c-1.2,0-2.3-0.6-2.6-1.4c-0.4-1-0.1-1.8,0.6-4l6.4-19.3h-6.3l-3.3,5.4c-0.4-1.4-0.6-2-0.9-2.6
	c-1-2.4-2.9-3.6-6-3.6c-4.9,0-12.3,4.4-15.6,9.8c-1.5,2.4-2.5,5.1-2.8,7.7c-1.9,4-5,7.8-9.3,11.1c-5.8,4.6-12.5,7-19.2,7
	c-12.4,0-21.6-6.1-26.2-17.2c-5.3-13-4.7-28.7,1.7-45.3c6.6,2.6,9.3,3.1,17.1,3.1c17.5,0,32.9-7.7,40-19.6c2.1-3.5,2.6-7.5,1.3-10.8
	c-2.3-5.7-7.9-8.6-15.7-8.6c-16.3,0-39.6,16-47.2,32.7c-6.3-3.9-9.3-7-11.4-12c-4.4-10.6,2.8-20.3,15.2-20.3H27l0.1-0.7
	c0,0-1.7-0.1-2.3-0.1C12.2,120.1,4.2,130.1,8.5,140.5z M27.8,155.2c6.2-17,27.4-33.1,43-33.1c5.9,0,10.1,2.4,11.8,6.5
	c3.3,8-3.4,18-16.3,24.5c-7,3.4-13.7,4.8-23,4.8C36.8,157.9,33,157.3,27.8,155.2z M241.2,173.7c0.9,2.2,2.6,3.4,5.3,3.4
	c3.1,0,4.8-2.2,3.6-5.2c-1-2.4-2.6-3.4-5.1-3.4C241.5,168.5,240,170.7,241.2,173.7z M230.4,145.3c5.4-14.7,8.1-21.5,11.3-25.7
	c1.7-2.2,3.6-3.6,4.9-3.6c1,0,1.9,0.6,2.3,1.6c0.8,2-0.5,7.6-3.5,14.9c-4.9,10.9-13.9,25.7-22.6,36.4L230.4,145.3z M171.5,206.6
	c-1-2.4-0.8-6,0.3-10.3c1-3.4,5.6-9.8,9.6-9.8c1.4,0,2.2,0.4,3.2,1.4c-0.4,1.4-0.4,2.4,0.2,4c0.3,0.6,0.9,1.6,1.7,3
	c-1.8,8.4-6.5,14.5-11,14.5C173.5,209.4,172.3,208.6,171.5,206.6z M88.9,206.6c-1.2-3,0-10.1,3-14.5c1.9-3.2,4.8-5.6,7.1-5.6
	c1.4,0,2.7,1,3.2,2.4c1,2.4,0.3,6.6-1.7,11.7c-1.9,4.8-5.5,8-8.5,8C90.6,208.6,89.5,208,88.9,206.6z M207.2,249.8L207.2,249.8h0.1
	h0.1c1.5,0,2.8-0.4,3.9-1.1c1.1-0.8,1.7-1.8,1.7-3.1c0-1.2-0.5-2.2-1.4-3c-0.4-0.4-0.9-0.7-1.5-1s-1.1-0.6-1.8-0.8l-1.2-0.6
	c-1.4-0.7-2.2-1.5-2.2-2.5c0-0.6,0.2-1.1,0.7-1.5c0.2-0.2,0.5-0.3,0.9-0.5c0.4-0.1,0.8-0.2,1.3-0.2s0.9,0.1,1.3,0.2
	c1.1,0.4,1.6,1.3,1.6,2.8c0,0.2,0.2,0.3,0.5,0.3c0.4,0,0.6-0.1,0.8-0.3c0.1-0.1,0.2-0.3,0.3-0.7s0.1-0.8,0.1-1.3s-0.1-0.9-0.3-1.2
	c-0.6-0.8-1.9-1.2-4-1.2c-1.6,0-2.9,0.3-3.9,1s-1.6,1.7-1.6,2.9s0.4,2.2,1.2,3c0.4,0.4,0.8,0.7,1.3,1s1.2,0.6,2.1,1
	c0.9,0.4,1.6,0.7,2.2,1.1c0.4,0.3,0.6,0.5,0.8,0.8s0.3,0.7,0.3,1.1c0,0.4-0.1,0.7-0.2,1c-0.4,0.8-1.3,1.2-2.6,1.2
	c-1.1,0-2-0.2-2.6-0.8c-0.6-0.5-1-1.3-1.1-2.5c-0.1-0.3-0.3-0.4-0.7-0.4c-0.2,0-0.4,0.1-0.5,0.2c-0.4,0.6-0.5,1.3-0.6,2l0,0l0,0l0,0
	l0,0c0,0.3,0.1,0.6,0.2,0.9c0.3,0.5,0.8,0.9,1.5,1.2C204.9,249.6,206,249.8,207.2,249.8z M193.2,247.8L193.2,247.8L193.2,247.8v-0.1
	l0,0v-0.1v-0.1v-0.1c0-1.1-0.1-1.9-0.4-2.4c0-0.1-0.2-0.1-0.5-0.1c-0.2,0-0.4,0.1-0.6,0.2c0,0.1,0,0.4,0,0.7s0,0.7-0.1,1
	s-0.2,0.6-0.5,0.8c-0.4,0.4-1.4,0.6-2.8,0.6h-1.5c-0.6,0-1-0.1-1.2-0.2c-0.3-0.2-0.4-0.5-0.4-1v-4.4c1.7,0.2,2.8,0.3,3.4,0.3
	c0.6,0,1.1,0,1.5-0.1c0.1-0.3,0.2-0.6,0.2-0.9c0-0.2,0-0.4-0.1-0.6c-0.1-0.2-0.2-0.3-0.3-0.4c-1.3,0.3-2.6,0.4-4.1,0.4h-0.6v-4.2
	c0-0.3,0-0.5,0.1-0.7c0-0.2,0.1-0.3,0.3-0.5c0.2-0.1,0.6-0.2,1.3-0.2h2.2c0.5,0,0.8,0,1.1,0.1s0.5,0.3,0.8,0.5
	c0.2,0.3,0.4,0.9,0.4,1.8c0,0,0.1,0.1,0.2,0.2c0.1,0.1,0.3,0.1,0.6,0.1c0.2,0,0.3-0.1,0.4-0.2c0-0.1,0.1-0.3,0.2-0.7
	c0.1-0.4,0.2-0.9,0.2-1.6c0-0.7-0.1-1.1-0.4-1.3c-0.2-0.1-0.5-0.2-1.2-0.2h-10.2c-0.1,0-0.2,0-0.4,0c-0.1,0.1-0.2,0.3-0.2,0.6
	c0,0.2,0.1,0.4,0.3,0.5c0.1,0,0.2,0.1,0.3,0.1s0.3,0.1,0.4,0.1c0.1,0,0.3,0.1,0.4,0.1c0.5,0.2,0.7,0.5,0.7,1.1v10
	c0,0.6-0.2,1-0.5,1.2c-0.1,0.1-0.3,0.2-0.4,0.2c-0.2,0-0.3,0-0.5,0s-0.4,0-0.7-0.1c-0.1,0.1-0.1,0.3-0.1,0.6c0,0.5,0.4,0.7,1.2,0.7
	h11.1c0.1,0,0.1,0,0.2-0.2C193.1,249.1,193.2,248.6,193.2,247.8z M171.6,237.4L171.6,237.4L171.6,237.4v-0.1c0-0.9-0.4-1.6-1.1-2.1
	c-0.4-0.3-0.8-0.5-1.4-0.6c-0.5-0.1-1.2-0.2-2-0.2l0,0l0,0l0,0l0,0l0,0l0,0c-0.9,0-1.8,0.2-2.8,0.6c-1,0.4-1.8,1-2.5,1.7
	s-1.3,1.6-1.7,2.7c-0.4,1-0.6,2.2-0.6,3.5c0,2.1,0.6,3.8,1.9,5.1c1.3,1.3,3,1.9,5.2,1.9c1.5,0,2.8-0.3,3.9-1c0.5-0.3,0.8-0.6,1-0.9
	c0.2-0.3,0.4-0.5,0.4-0.7s0-0.3-0.1-0.4c-0.1-0.3-0.3-0.5-0.5-0.5c-0.2,0.2-0.4,0.5-0.7,0.6c-0.8,0.7-2.1,1-3.6,1
	c-1.6,0-2.8-0.6-3.7-1.7c-0.9-1-1.3-2.5-1.3-4.2c0-1.9,0.4-3.3,1.3-4.4c0.4-0.5,1-1,1.6-1.3s1.4-0.4,2.2-0.4s1.5,0.1,1.9,0.4
	c0.2,0.2,0.4,0.4,0.6,0.7c0.1,0.3,0.2,0.6,0.2,1c0,0.3,0,0.6,0,0.8c0.2,0.1,0.5,0.1,0.9,0.1c0.2,0,0.4-0.1,0.6-0.1
	C171.4,238.5,171.6,238,171.6,237.4z M142.8,249.8L142.8,249.8h0.2c1.9,0,3.4-0.6,4.5-1.7c1.1-1.1,1.6-2.8,1.6-5v-5.9
	c0-1,0.3-1.6,0.8-1.6c0.3,0,0.6,0,0.8,0.1c0.1-0.1,0.1-0.3,0.1-0.5c0-0.3-0.1-0.5-0.3-0.6s-0.5-0.1-0.8-0.1h-3.3c-0.5,0-0.8,0-1-0.1
	c-0.1,0.1-0.2,0.3-0.2,0.5c0,0.3,0.1,0.4,0.3,0.5c0.1,0.1,0.2,0.1,0.4,0.1l0.5,0.1c0.2,0,0.3,0.1,0.4,0.1c0.3,0.1,0.4,0.5,0.4,1v5.9
	c0,3.5-1.4,5.3-4.3,5.3c-1.1,0-2-0.3-2.7-1c-0.8-0.9-1.2-2.3-1.2-4.4v-5.3c0-0.6,0.1-1,0.4-1.3c0.1-0.1,0.2-0.2,0.4-0.3
	c0.1,0,0.3-0.1,0.5-0.1s0.4,0,0.7,0.1c0.1-0.1,0.1-0.3,0.1-0.5c0-0.5-0.4-0.8-1.1-0.8h-3.9c-0.5,0-0.8,0-1-0.1
	c-0.1,0.1-0.2,0.3-0.2,0.5l0,0l0,0l0,0c0,0.2,0.1,0.4,0.3,0.5c0.1,0.1,0.2,0.1,0.4,0.1s0.3,0.1,0.5,0.1s0.3,0.1,0.4,0.2
	c0.1,0.1,0.1,0.3,0.1,0.6v6.8c0,2.4,0.7,4.2,2,5.2C139.8,249.4,141.2,249.8,142.8,249.8z M119.1,249.8L119.1,249.8L119.1,249.8h0.2
	h0.1c1.1,0,2.3-0.4,3.4-1c1.2-0.7,2.2-1.6,2.8-2.8c0.7-1.3,1.1-2.8,1.1-4.4v-0.1v-0.1c0-2.1-0.7-3.9-2-5.2s-3-1.9-5-1.9
	c-1.3,0-2.6,0.3-3.8,1c-0.6,0.3-1.1,0.7-1.6,1.2s-0.9,1-1.3,1.6c-0.3,0.6-0.6,1.3-0.8,2c-0.2,0.8-0.3,1.6-0.3,2.6s0.2,1.9,0.5,2.8
	c0.4,0.9,0.8,1.6,1.5,2.3c0.6,0.6,1.4,1.1,2.2,1.4C117,249.6,118,249.8,119.1,249.8z M115.5,246.4c-0.4-0.6-0.7-1.2-0.8-1.9
	c-0.2-0.7-0.3-1.5-0.3-2.4s0.1-1.7,0.3-2.5c0.2-0.8,0.5-1.4,0.9-2s0.9-1,1.5-1.3s1.3-0.4,2.2-0.4c0.9,0,1.6,0.2,2.2,0.5
	c1.8,1,2.6,3,2.6,5.9c0,1.9-0.4,3.4-1.2,4.4c-0.9,1.1-2.1,1.6-3.7,1.6C117.6,248.2,116.3,247.6,115.5,246.4z M148.8,24.7L148.8,24.7
	L148.8,24.7h-0.1l0,0l0,0l0,0l0,0h-0.4h-0.2c-0.2,0-0.5,0-0.8,0.1c-0.3,0-0.5,0.1-0.8,0.2c-2.2,0.6-4.1,1.5-5.6,2.7
	c-1.7,1.3-3,3.1-3.7,5.1l-0.4,1.5l-0.2,1.7c0,0.2,0,0.4,0,0.6l0.2,2.2l0.1,0.5c0.2,0.8,0.3,1.5,0.5,2.3l1,2.6l1.3-0.3l-0.5-2.6
	c-0.1-0.7-0.1-1.5-0.2-2.2l-0.1-0.4c0.1-1.6,0.2-3.4,1-4.9c1.2-2.6,4-4.6,7.5-5.3c0.2-0.1,0.4-0.1,0.6-0.1c0.1,0,0.1,0,0.2,0h0.2
	c0.4,0,0.8,0,1.1,0.1c0.9,0.1,1.6,0.3,2.3,0.6c1.4,0.5,2.8,1.3,3.9,2.4c1.2,1.1,2,2.4,2.5,3.7c0.5,1.4,0.6,2.8,0.4,4.5
	c-0.2,1.6-0.6,3.1-1.3,4.5c-0.7,1.3-1.7,2.4-2.9,3c-0.5,0.3-1.1,0.4-1.8,0.5c-0.8,0-1.6,0.1-2.3-0.1c-1.5-0.3-2.7-0.9-3.5-2
	c-0.8-1-1.2-2.5-1.3-4.2c-0.1-1.6,0-3.3,0.8-4.3c0.3-0.5,0.9-0.9,1.7-1.3c0.6-0.3,1.3-0.5,2.1-0.4c1.3,0.1,2.6,1.2,3.3,2.8l1.3-0.4
	c-0.3-1.1-0.8-2-1.4-2.7c-0.8-0.9-1.8-1.5-2.8-1.8c-1.1-0.3-2.3-0.2-3.4,0.2c-1.2,0.4-2.1,1-2.9,1.8c-0.9,1-1.3,2.2-1.6,3.1
	c-0.2,1-0.3,1.9-0.4,3c-0.1,1.6,0.1,4,1.6,6.2c0.7,1,1.5,1.8,2.5,2.5l0.3,0.2c-5.5,1-11.1,2.8-16.7,5.6c-6.5,3.2-12.3,7.1-17.1,11.5
	l0.8,1c5.8-3.6,11.8-6.8,17.8-9.3c2.5-1,5.9-2.3,9.4-3.3c3.6-1,6.7-1.6,9.6-1.9c6.9-0.7,13.4,0.1,18.9,2.5c1.1,0.4,2.1,0.9,3.2,1.5
	c0.4,0.2,0.8,0.4,1.1,0.6c0.4,0.3,0.8,0.5,1.2,0.7c1,0.6,2,1.3,2.9,2.1c2.4,1.8,4.4,3.9,6.6,6.2l0.6,0.6l1.1-0.8
	c-2.2-3.5-4.2-6.1-6.4-8.1c-0.9-0.9-1.9-1.8-2.9-2.5c-0.4-0.3-0.7-0.6-1.1-0.9L175,56c-1.3-0.9-2.7-1.8-4.2-2.5
	c-3.2-1.6-6.7-2.7-10.2-3.3c-0.9-0.1-1.7-0.2-2.6-0.3c1.5-1.1,2.5-2.6,3.1-3.7c1-1.8,1.6-3.8,1.9-6c0.2-2.2,0-4.4-0.7-6.4
	c-0.8-2-2-3.8-3.6-5.3c-1.6-1.4-3.6-2.5-5.5-3.1c-1-0.3-2-0.5-3.2-0.6C149.5,24.8,149.2,24.7,148.8,24.7z M163.9,112.5
	c-2.4,0.9-4.3,2.9-5.2,5.2c-1,2.4-1.1,4.9-1.1,7c0,1.1,0,2.1,0,3.1c0,1.2,0.1,2.4,0,3.5c-0.1,1.9-0.2,4.1-1.1,6.2l-1.8,4.3l3-3.6
	c1.3-1.6,2.2-3.8,2.5-6.7c0.2-1.8,0.2-3.6,0.2-5.3c0-0.5,0-1,0-1.6c0-1.9,0.1-4.2,0.7-6.3c0.5-1.9,1.7-3.6,3.5-4.9l3.7-2.8
	L163.9,112.5z M141.6,113.7c1.8,1.4,3,3,3.5,4.9c0.6,2.1,0.6,4.3,0.7,6.3c0,0.5,0,1,0,1.6c0,1.7,0,3.5,0.2,5.2
	c0.3,2.8,1.2,5.1,2.5,6.7l3,3.6l-1.8-4.3c-0.9-2.1-1.1-4.3-1.1-6.2c0-1.2,0-2.4,0-3.6c0-1,0.1-2,0.1-3.1c-0.1-2.2-0.2-4.6-1.1-7
	c-0.9-2.4-2.8-4.3-5.2-5.2l-4.4-1.7L141.6,113.7z M172,114.6c-2.1,2-3.7,4.8-4.1,7.8c-0.1,0.7-0.1,1.5-0.1,2.2l0.1,2
	c0.1,1.3,0.1,2.6,0.1,3.9c-0.1,2.6-0.4,5.1-2,7.4c1.3-0.6,2.3-1.8,3-3c0.7-1.3,1.1-2.7,1.4-4.1c0.3-1.4,0.4-2.8,0.5-4.2
	c0-0.7,0-1.5,0-2c0-0.6,0-1.2,0.1-1.8c0.3-2.4,1.3-4.6,2.8-6.6s3.5-3.9,5.5-5.8C176.7,111.2,174.1,112.6,172,114.6z M130.6,116.1
	c0.7,1,1.4,2,1.8,3.1c0.4,1.1,0.6,2.3,0.7,3.5c0.3,2.5,0.3,5.3,0.9,8c0.3,1.4,0.7,2.7,1.4,4c0.7,1.2,1.6,2.5,2.9,3.1
	c-0.8-1.1-1.3-2.3-1.5-3.6c-0.3-1.2-0.4-2.5-0.4-3.8c-0.1-2.6,0.1-5.2-0.2-8.1c-0.2-1.4-0.5-2.9-1.1-4.3c-0.7-1.4-1.6-2.6-2.7-3.6
	c-2.1-1.9-4.6-3.4-7.3-4.2C127.1,112.3,129,114.1,130.6,116.1z M154.9,151.7L154.9,151.7h0.1h0.1h0.1h0.1h0.1h0.2
	c3.9,0,7.6-0.6,11.1-1.7c2.6-0.9,4.9-2,6.9-3.4c2.3-1.6,4.2-3.6,5.5-5.7c1.9-3.3,3.2-6.7,4.4-10.1c0.4-1.1,0.8-2.2,1.3-3.4
	c1.6-4,3.5-8.5,7-11.9l0.4-0.4l-1-1.1l-0.5,0.4c-1.9,1.4-3.6,3.2-5.1,5.5c-1.3,1.9-2.4,4-3.6,6.5c-0.7,1.5-1.4,3.1-2.1,4.6
	c-1.3,2.9-2.4,5.7-4,8.1c-2.7,4.3-7.1,6.6-10.4,7.8c-4.2,1.5-8.8,2.3-13.7,2.2c-5.2-0.1-9.8-1.1-13.6-3.1c-0.8-0.4-1.6-0.9-2.3-1.5
	l-0.6-0.4c-0.3-0.2-0.6-0.5-0.8-0.7c-0.2-0.1-0.3-0.3-0.5-0.4c-0.4-0.4-0.9-0.7-1.3-1.2c-1.7-1.6-3.2-3.7-4.4-5.3
	c-2.9-4.2-5.3-8.7-7.1-12.2l-0.6-1.1c-2-3.8-4.1-7.8-6.5-11.5l-0.3-0.5l-1.3,0.7l0.3,0.6c1,2.2,1.9,4.4,2.9,6.6
	c0.9,2.2,1.9,4.4,2.9,6.6c1.8,3.9,4.1,8.5,7.3,12.7c3.3,4.1,7.2,7.4,11.5,9.5c4.2,2,9.1,3.3,14.4,3.7
	C152.7,151.7,153.8,151.7,154.9,151.7z M118.6,75.5c-0.6,0-1.1,0.1-1.7,0.2l-1.9,0.2c-0.3,0-0.5,0.1-0.8,0.2l-2.8,0.6
	c-3.5,1.1-6.3,2.4-8.7,4c-5,3.3-9,8.6-11.4,14.7L91.1,96l1.3,0.6l0.3-0.5c3.1-5.6,7.1-10.1,11.6-12.9l1.9-1.1
	c0.4-0.2,0.7-0.4,1.2-0.5c0.3-0.1,0.5-0.2,0.8-0.4c0.9-0.4,1.8-0.7,2.8-1c0.4-0.1,0.9-0.3,1.2-0.4c3.4-0.8,6.2-1.2,8.8-1.2
	c0.6-0.1,1.2-0.1,1.8,0h0.3c0.7,0,1.5,0,2.2,0.1c0.5,0,0.9,0.1,1.3,0.1c1,0.1,2.1,0.2,3.2,0.4c3.2,0.4,6.4,1.3,8.7,2.1
	c5.8,1.9,11.1,5.2,15.9,8.5c1.7,1.2,3.4,2.3,5.1,3.5c3.3,2.3,6.6,4.6,10.1,6.8c4.7,3,10.5,6.3,16.8,8.3l1.2,0.4l3.5,0.8
	c0.5,0.1,1.1,0.2,1.6,0.2c0.3,0,0.5,0.1,0.8,0.1l1.9,0.2h1.1c0.7,0,1.4,0,2.1-0.2l0.4-0.1c0.3-0.1,0.6-0.1,0.9-0.2l1.1-0.4
	c0.5-0.1,0.9-0.4,1.3-0.6c0.1-0.1,0.2-0.1,0.3-0.2c0.3-0.1,0.6-0.3,0.8-0.5l0.2-0.2c0.6-0.5,1.2-1,1.6-1.6c0.5-0.5,0.9-1.1,1.2-1.7
	l0.2-0.4c0.1-0.3,0.3-0.5,0.4-0.8l0.2-0.4c0.2-0.4,0.3-0.8,0.4-1.2l0.4-1.1c0.1-0.3,0.1-0.5,0.2-0.8l0.1-0.4
	c0.2-0.6,0.2-1.2,0.3-1.8l0.1-0.6c0.2-1.6,0.2-3.2,0.1-4.7c-0.1-1.7-0.4-3.4-0.7-4.6l-0.2-0.6l-1.5,0.3l0.1,0.6
	c0.4,3.1,0.3,6-0.2,8.7c-0.6,3.3-1.8,5.8-3.4,7.5c-1.6,1.8-4.1,2.8-7,2.7l-2.1-0.2c-0.3,0-0.5-0.1-0.8-0.1c-0.4-0.1-0.9-0.1-1.3-0.2
	l-3.2-0.8l-1.1-0.4c-4.9-1.6-9.9-3.9-16.1-7.7c-2.3-1.4-4.5-2.8-6.8-4.2c-2.9-1.8-5.8-3.7-8.8-5.4c-4.8-2.8-10.5-6.1-16.6-8.3
	c-4.9-1.7-11.4-3.7-18.4-3.7L118.6,75.5z M268.8,183.5h0.6c0.8,0,1.3,0,1.5-0.1s0.3-0.2,0.5-0.3c0.1-0.2,0.2-0.3,0.2-0.5
	s-0.1-0.4-0.2-0.5s-0.3-0.3-0.5-0.3c-0.2-0.1-0.7-0.1-1.5-0.1h-0.6V183.5z M267.4,187.4v-6.9h1.4c1.3,0,2,0,2.2,0
	c0.5,0,0.8,0.1,1.1,0.3c0.3,0.1,0.5,0.4,0.6,0.7c0.2,0.3,0.3,0.6,0.3,1c0,0.5-0.2,0.9-0.5,1.3c-0.3,0.4-0.8,0.6-1.4,0.7
	c0.2,0.1,0.4,0.2,0.5,0.3s0.3,0.3,0.5,0.5c0.1,0.1,0.2,0.3,0.5,0.8l0.8,1.4h-1.7l-0.6-1.1c-0.4-0.8-0.7-1.2-1-1.4s-0.6-0.3-1-0.3
	h-0.4v2.8h-1.3V187.4z M270.3,178.7c-0.9,0-1.8,0.2-2.6,0.7c-0.8,0.4-1.5,1.1-1.9,1.9c-0.5,0.8-0.7,1.7-0.7,2.6
	c0,0.9,0.2,1.8,0.7,2.6s1.1,1.5,1.9,1.9c0.8,0.5,1.7,0.7,2.6,0.7s1.8-0.2,2.6-0.7c0.8-0.5,1.5-1.1,1.9-1.9c0.5-0.8,0.7-1.7,0.7-2.6
	c0-0.9-0.2-1.8-0.7-2.6s-1.1-1.5-1.9-1.9C272.1,178.9,271.2,178.7,270.3,178.7z M270.3,177.4c1.1,0,2.2,0.3,3.2,0.8
	c1,0.6,1.8,1.4,2.4,2.4s0.9,2.1,0.9,3.3c0,1.1-0.3,2.2-0.9,3.2s-1.4,1.8-2.4,2.4c-1,0.6-2.1,0.9-3.2,0.9s-2.2-0.3-3.2-0.9
	c-1-0.6-1.8-1.4-2.4-2.4s-0.9-2.1-0.9-3.2c0-1.1,0.3-2.2,0.9-3.3c0.6-1,1.4-1.8,2.4-2.4C268.1,177.7,269.2,177.4,270.3,177.4z
	 M92.5,248.2c-0.3-0.2-0.5-0.5-0.5-1v-9.9c0-0.4,0-0.7,0.1-0.9c0-0.2,0.1-0.4,0.3-0.6c0.2-0.2,0.7-0.2,1.5-0.2c1.2,0,2.2,0.2,3,0.5
	c2.2,1,3.4,3,3.4,6.1c0,1.8-0.4,3.2-1.3,4.2c-0.5,0.6-1.1,1-1.9,1.3s-1.7,0.5-2.7,0.5C93.4,248.4,92.8,248.3,92.5,248.2z"/>
<g>
	<path class="st6" d="M75.4,205.8h5.6c0.5,0,1,0.1,1.5,0.2c0.5,0.1,1.1,0.3,1.6,0.5c0.5,0.2,1,0.6,1.5,0.9c0.5,0.4,0.9,0.9,1.3,1.4
		c0.4,0.5,0.7,1.2,0.9,1.9c0.2,0.7,0.3,1.5,0.3,2.4c0,0.9-0.1,1.7-0.3,2.4c-0.2,0.7-0.5,1.3-0.9,1.9c-0.4,0.5-0.8,1-1.3,1.4
		c-0.5,0.4-1,0.7-1.5,0.9c-0.5,0.2-1.1,0.4-1.6,0.5c-0.5,0.1-1.1,0.2-1.5,0.2h-5.6V205.8z M77.2,218.9h3.3c0.8,0,1.6-0.1,2.3-0.3
		c0.7-0.2,1.3-0.6,1.9-1c0.5-0.5,0.9-1.1,1.2-1.8c0.3-0.7,0.5-1.6,0.5-2.6c0-1-0.2-1.9-0.5-2.6c-0.3-0.7-0.7-1.3-1.2-1.8
		c-0.5-0.5-1.1-0.8-1.9-1c-0.7-0.2-1.5-0.3-2.3-0.3h-3.3V218.9z"/>
	<path class="st6" d="M108.3,220.9c-1.1,0-2.1-0.2-3.1-0.6c-0.9-0.4-1.7-0.9-2.4-1.6c-0.7-0.7-1.2-1.5-1.6-2.4
		c-0.4-0.9-0.6-2-0.6-3.1c0-1.1,0.2-2.1,0.6-3.1c0.4-0.9,0.9-1.8,1.6-2.4c0.7-0.7,1.5-1.2,2.4-1.6c0.9-0.4,2-0.6,3.1-0.6
		c1.1,0,2.1,0.2,3.1,0.6c0.9,0.4,1.7,0.9,2.4,1.6c0.7,0.7,1.2,1.5,1.6,2.4c0.4,0.9,0.6,2,0.6,3.1c0,1.1-0.2,2.1-0.6,3.1
		c-0.4,0.9-0.9,1.8-1.6,2.4c-0.7,0.7-1.5,1.2-2.4,1.6C110.4,220.7,109.4,220.9,108.3,220.9 M108.3,219.3c0.9,0,1.6-0.2,2.4-0.5
		c0.7-0.3,1.3-0.8,1.8-1.3c0.5-0.6,0.9-1.2,1.2-1.9c0.3-0.7,0.4-1.5,0.4-2.4c0-0.8-0.1-1.6-0.4-2.4c-0.3-0.7-0.7-1.4-1.2-1.9
		c-0.5-0.6-1.1-1-1.8-1.3c-0.7-0.3-1.5-0.5-2.4-0.5c-0.9,0-1.6,0.2-2.4,0.5c-0.7,0.3-1.3,0.8-1.8,1.3c-0.5,0.6-0.9,1.2-1.2,1.9
		c-0.3,0.7-0.4,1.5-0.4,2.4c0,0.8,0.1,1.6,0.4,2.4c0.3,0.7,0.7,1.4,1.2,1.9c0.5,0.6,1.1,1,1.8,1.3
		C106.7,219.1,107.4,219.3,108.3,219.3"/>
	<path class="st6" d="M140.2,214.9c0,0.8-0.1,1.6-0.3,2.3c-0.2,0.7-0.5,1.4-1,1.9c-0.4,0.5-1,1-1.7,1.3c-0.7,0.3-1.6,0.5-2.6,0.5
		c-1,0-1.9-0.2-2.6-0.5c-0.7-0.3-1.3-0.8-1.7-1.3c-0.4-0.5-0.8-1.2-1-1.9c-0.2-0.7-0.3-1.5-0.3-2.3v-9.1h1.7v8.8
		c0,0.6,0.1,1.2,0.2,1.7c0.1,0.6,0.3,1,0.6,1.5c0.3,0.4,0.7,0.8,1.2,1c0.5,0.3,1.1,0.4,1.8,0.4c0.7,0,1.3-0.1,1.8-0.4
		c0.5-0.3,0.9-0.6,1.2-1c0.3-0.4,0.5-0.9,0.6-1.5c0.1-0.6,0.2-1.1,0.2-1.7v-8.8h1.7V214.9z"/>
	<path class="st6" d="M164.4,208.9c-0.4-0.6-1-1-1.6-1.3c-0.7-0.3-1.3-0.4-2-0.4c-0.8,0-1.6,0.2-2.3,0.5c-0.7,0.3-1.3,0.8-1.8,1.3
		c-0.5,0.6-0.9,1.2-1.2,2c-0.3,0.7-0.4,1.5-0.4,2.3c0,0.9,0.1,1.7,0.4,2.4c0.3,0.7,0.7,1.4,1.2,1.9c0.5,0.5,1.1,1,1.8,1.3
		c0.7,0.3,1.4,0.5,2.3,0.5c0.9,0,1.7-0.2,2.4-0.5c0.7-0.4,1.3-0.9,1.8-1.5l1.3,1.1c-0.7,0.9-1.5,1.5-2.4,2c-0.9,0.4-2,0.6-3.2,0.6
		c-1.1,0-2-0.2-2.9-0.6c-0.9-0.4-1.7-0.9-2.4-1.6c-0.7-0.7-1.2-1.5-1.6-2.4c-0.4-0.9-0.6-2-0.6-3.1c0-1.1,0.2-2.1,0.6-3
		c0.4-0.9,0.9-1.8,1.5-2.5c0.7-0.7,1.5-1.2,2.4-1.6c0.9-0.4,1.9-0.6,3-0.6c1,0,2,0.2,2.9,0.5c0.9,0.4,1.7,0.9,2.3,1.8L164.4,208.9z"
		/>
	<polygon class="st6" points="179.1,205.8 188.4,205.8 188.4,207.5 180.9,207.5 180.9,212.1 187.9,212.1 187.9,213.7 180.9,213.7 
		180.9,218.9 188.7,218.9 188.7,220.5 179.1,220.5 	"/>
	<path class="st6" d="M208.8,208.4c-0.3-0.5-0.7-0.8-1.2-1c-0.5-0.2-1-0.3-1.5-0.3c-0.4,0-0.8,0-1.1,0.1c-0.4,0.1-0.7,0.2-1,0.4
		c-0.3,0.2-0.5,0.5-0.7,0.8c-0.2,0.3-0.3,0.7-0.3,1.1c0,0.3,0.1,0.6,0.2,0.9c0.1,0.3,0.3,0.5,0.5,0.7c0.2,0.2,0.6,0.4,1,0.6
		c0.4,0.2,0.9,0.4,1.5,0.5c0.6,0.2,1.1,0.4,1.6,0.6c0.5,0.2,1,0.5,1.4,0.8c0.4,0.3,0.7,0.7,1,1.2c0.2,0.5,0.4,1.1,0.4,1.8
		c0,0.7-0.1,1.4-0.4,1.9c-0.3,0.5-0.7,1-1.2,1.3c-0.5,0.4-1,0.6-1.7,0.8c-0.6,0.2-1.3,0.3-1.9,0.3c-0.4,0-0.9,0-1.3-0.1
		c-0.4-0.1-0.8-0.2-1.2-0.4c-0.4-0.2-0.8-0.4-1.1-0.6c-0.3-0.3-0.6-0.6-0.9-0.9l1.5-1.2c0.3,0.5,0.8,0.9,1.3,1.2
		c0.6,0.3,1.2,0.4,1.8,0.4c0.4,0,0.8-0.1,1.1-0.2c0.4-0.1,0.7-0.3,1-0.5c0.3-0.2,0.6-0.5,0.7-0.8c0.2-0.3,0.3-0.7,0.3-1.1
		c0-0.5-0.1-0.8-0.2-1.1c-0.2-0.3-0.4-0.5-0.7-0.7c-0.3-0.2-0.7-0.4-1.2-0.6c-0.5-0.2-1.1-0.4-1.7-0.6c-0.5-0.2-1-0.4-1.5-0.6
		c-0.4-0.2-0.8-0.5-1.2-0.8c-0.3-0.3-0.6-0.7-0.8-1.1c-0.2-0.4-0.3-1-0.3-1.6c0-0.7,0.1-1.3,0.4-1.8c0.3-0.5,0.7-1,1.1-1.3
		c0.5-0.4,1-0.6,1.6-0.8c0.6-0.2,1.2-0.3,1.9-0.3c0.8,0,1.6,0.1,2.3,0.4c0.7,0.3,1.3,0.7,1.8,1.3L208.8,208.4z"/>
	<path class="st6" d="M27.3,85.2c8,0,14.5,6.5,14.5,14.5v10.4h-8.7V92.7c0-3.2-2.6-5.8-5.8-5.8h-2.3c-3.2,0-5.8,2.6-5.8,5.8v75.5
		c0,3.2,2.6,5.8,5.8,5.8h2.3c3.2,0,5.8-2.6,5.8-5.8v-17.4h8.7v10.4c0,8-6.5,14.5-14.5,14.5h-2.3c-8,0-14.5-6.5-14.5-14.5V99.6
		c0-8,6.5-14.5,14.5-14.5h2.3V85.2z"/>
	<path class="st6" d="M145.2,168.6l0.1-0.1c1.4,3.4,4.7,5.6,8.3,5.6v1.8h-9c-3.6,0-7-2.2-8.4-5.6L125.1,145h-2.2v29.1h5.7v1.8h-20.2
		v-1.8h2.4c1.8,0,3.3-1.5,3.3-3.3V90.2c0-1.8-1.5-3.3-3.3-3.3h-2.4V85H131c8,0,14.5,6.5,14.5,14.5v30.9c0,6.9-4.7,12.6-11,14.1
		L145.2,168.6z M123,86.7v56.5h8.2c3.2,0,5.8-2.6,5.8-5.8V92.6c0-3.2-2.6-5.8-5.8-5.8H123z"/>
	<path class="st6" d="M244.2,162.8h1.8v13h-36.2v-1.8h2.4c1.8,0,3.3-1.5,3.3-3.3V90.1c0-1.8-1.5-3.3-3.3-3.3h-2.4v-1.8H230v1.8h-5.7
		v87.2h8.8c6.1,0,11-4.9,11-11V162.8z"/>
	<path class="st6" d="M269.8,86.8v87.2h5.7v1.8h-20.2v-1.8h2.4c1.8,0,3.3-1.5,3.3-3.3V90.2c0-1.8-1.5-3.3-3.3-3.3h-2.4V85h20.2v1.8
		H269.8z"/>
	<path class="st6" d="M165.3,161.3V99.4c0-8,6.5-14.5,14.5-14.5h2.3c8,0,14.5,6.5,14.5,14.5v61.9c0,8-6.5,14.5-14.5,14.5h-2.3
		C171.8,175.9,165.3,169.4,165.3,161.3 M174,168.2c0,3.2,2.6,5.8,5.8,5.8h2.3c3.2,0,5.8-2.6,5.8-5.8V92.4c0-3.2-2.6-5.8-5.8-5.8
		h-2.3c-3.2,0-5.8,2.6-5.8,5.8V168.2z"/>
	<path class="st6" d="M94.2,171.3L79.2,85h-9.3l-15,86.3c-0.3,1.6-1.7,2.8-3.3,2.8h-3.3v1.8h13v-1.8h-3.9l14.2-81.5l14.2,81.5h-5.2
		v1.8h20.2v-1.8h-3.4C95.8,174.1,94.4,172.9,94.2,171.3"/>
</g>
</svg>
